<?xml version="1.0" encoding="utf-8"?>
<!-- Generator: Adobe Illustrator 23.1.1, SVG Export Plug-In . SVG Version: 6.00 Build 0)  -->
<svg version="1.1" id="Layer_1" xmlns="http://www.w3.org/2000/svg" xmlns:xlink="http://www.w3.org/1999/xlink" x="0px" y="0px"
	 viewBox="0 0 356 400" style="enable-background:new 0 0 356 400;" xml:space="preserve">
<style type="text/css">
	.st0{fill:#FFFFFF;}
</style>
<g>
	<path class="st0" d="M247.9,239.3h-16.2H190v20.3h34.2c2.4,0,7.5,2.4,7.5,6.4v10.3c0,3.9-4.9,6.3-7.3,6.3h-56.2v-92.3
		c0,0-15.2-4.2-21.3-6.2c-9.7-3.2-21.3-9.3-21.3-9.3v107.7v28.6h42.6h63.5h16.5c14,0,13.6-13.5,13.6-15.4v-36.1v-7
		C261.8,250.6,262.3,239.3,247.9,239.3"/>
	<path class="st0" d="M259.7,170.8c-1.7-4.3-6.6-8.5-15.6-11.5c-30.6-10.2-62.5-14.3-92.2-27.8c-5.8-2.6-11.5-5.5-17-8.7
		c-11.7-6.8-22.7-14.9-30.3-26.2c-1-1.5-1.9-2.9-2.7-4.6c-0.6-1.2-1.5-3.1-3.1-3.2c-1.8-0.1-2.9,2.4-3.3,3.7c-0.6,2-1,4.1-1.2,6.3
		c-0.1,2.5-0.2,5-0.2,7.5c0,4.7,0.3,9.4,1.1,14.1c1.9,11.1,7.4,22,14.7,30.4c2.1,2.4,4.4,4.6,6.9,6.6c8.6,6.9,19.1,11.6,29.6,15
		c10.9,3.5,21.3,5.5,32.8,5.5c12,0,24.1,0,36.1,0c3,0,5.9,0,8.8,0c7.5,0,7.3,3.4,7.3,7.2c0,5.1,0.2,8.9-7.2,8.9H190v22.6h71.7v-20.1
		v-2.4V187C261.8,179.8,261.4,175.1,259.7,170.8"/>
	<path class="st0" d="M274.5,350h-193C64.1,350,50,333.5,50,313.1V86.9C50,66.5,64.1,50,81.5,50h193.1c17.3,0,31.5,16.5,31.5,36.9
		v226.3C306,333.5,291.9,350,274.5,350 M81.5,64.4c-10.5,0-19.2,10.1-19.2,22.5v226.3c0,12.4,8.6,22.5,19.2,22.5h193.1
		c10.6,0,19.2-10.1,19.2-22.5V86.9c0-12.4-8.6-22.5-19.2-22.5H81.5z"/>
</g>
</svg>
