<svg xmlns="http://www.w3.org/2000/svg" width="61" height="74" viewBox="0 0 61 74"><defs><style>.a{fill:#f2f2f2;}.b{fill:#fff;}.c{fill:#e6e6e6;}.d{fill:#3a557b;}.e{fill:#ccc;}</style></defs><g transform="translate(0)"><path class="a" d="M356.358,112.5H312.54a1.541,1.541,0,0,0-1.54,1.54v59.215a1.541,1.541,0,0,0,1.54,1.54h43.819a1.541,1.541,0,0,0,1.54-1.54V114.04A1.541,1.541,0,0,0,356.358,112.5Z" transform="translate(-311 -112.5)"/><path class="b" d="M327.557,128.5a1.076,1.076,0,0,0-1.058,1.091v56.322A1.076,1.076,0,0,0,327.557,187h41.112a1.076,1.076,0,0,0,1.058-1.091V129.591a1.076,1.076,0,0,0-1.058-1.091Z" transform="translate(-324.664 -126.605)"/><path class="c" d="M348.211,150.5a.761.761,0,0,0-.711.8v7.752a.761.761,0,0,0,.711.8h36.832a.761.761,0,0,0,.711-.8V151.3a.761.761,0,0,0-.711-.8Z" transform="translate(-343.177 -146)"/><path class="c" d="M348.21,261.25a.722.722,0,0,0-.711.731V278.55a.722.722,0,0,0,.711.731h36.832a.722.722,0,0,0,.711-.731V261.981a.722.722,0,0,0-.711-.731Z" transform="translate(-343.177 -243.933)"/><rect class="b" width="29.134" height="1.658" transform="translate(8.882 5.596)"/><rect class="b" width="29.134" height="0.77" transform="translate(8.941 9.089)"/><rect class="b" width="29.134" height="0.77" transform="translate(8.941 10.451)"/><rect class="b" width="29.134" height="0.77" transform="translate(8.941 11.813)"/><path class="b" d="M387.867,309.583h13.408a.432.432,0,0,0,.305-.737L393,300.266a.432.432,0,0,0-.61,0l-2.134,2.134a.905.905,0,0,1-1.28,0l-6.684-6.684a.432.432,0,0,0-.61,0l-13.071,13.071a.432.432,0,0,0,.305.737h18.97Z" transform="translate(-361.675 -274.25)"/><circle class="b" cx="1.658" cy="1.658" r="1.658" transform="translate(8.586 19.599)"/><path class="c" d="M348.21,446.25a.722.722,0,0,0-.711.731V463.55a.722.722,0,0,0,.711.731h36.832a.722.722,0,0,0,.711-.731V446.981a.722.722,0,0,0-.711-.731Z" transform="translate(-343.177 -407.395)"/><path class="b" d="M387.867,494.584h13.408a.432.432,0,0,0,.305-.737L393,485.266a.432.432,0,0,0-.61,0l-2.134,2.134a.9.9,0,0,1-1.28,0l-6.684-6.684a.432.432,0,0,0-.61,0l-13.071,13.071a.432.432,0,0,0,.305.737h18.97Z" transform="translate(-361.675 -437.688)"/><circle class="b" cx="1.658" cy="1.658" r="1.658" transform="translate(8.586 41.213)"/><path class="c" d="M446.066,227.5A1.067,1.067,0,0,0,445,228.566v59.215a1.067,1.067,0,0,0,1.066,1.066h43.819a1.067,1.067,0,0,0,1.066-1.066V228.566a1.067,1.067,0,0,0-1.066-1.066Z" transform="translate(-429.951 -214.847)"/><path class="b" d="M457.057,241.5A1.076,1.076,0,0,0,456,242.591v56.322A1.076,1.076,0,0,0,457.057,300h41.112a1.076,1.076,0,0,0,1.058-1.091V242.591a1.076,1.076,0,0,0-1.058-1.091Z" transform="translate(-439.647 -227.188)"/><path class="d" d="M515.724,310.683a.474.474,0,0,0-.474.474v2.174a.474.474,0,0,0,.474.474h27.949a.474.474,0,0,0,.474-.474v-2.174a.474.474,0,0,0-.474-.474Z" transform="translate(-491.881 -287.527)"/><path class="e" d="M516.868,371.439a.119.119,0,0,0-.118.118v.849a.119.119,0,0,0,.118.118h28.423a.119.119,0,0,0,.119-.118v-.849a.119.119,0,0,0-.119-.118Z" transform="translate(-493.203 -341.174)"/><path class="e" d="M516.868,394.734a.118.118,0,0,0-.118.118v.849a.118.118,0,0,0,.118.118h28.423a.119.119,0,0,0,.119-.118v-.849a.119.119,0,0,0-.119-.118Z" transform="translate(-493.203 -361.746)"/><path class="e" d="M516.868,418.029a.119.119,0,0,0-.118.118V419a.118.118,0,0,0,.118.118h28.423a.119.119,0,0,0,.119-.118v-.849a.119.119,0,0,0-.119-.118Z" transform="translate(-493.203 -382.318)"/><path class="e" d="M516.368,464.561a.119.119,0,0,0-.118.118v.849a.119.119,0,0,0,.118.118h28.423a.119.119,0,0,0,.118-.118v-.849a.119.119,0,0,0-.118-.118Z" transform="translate(-492.763 -423.412)"/><path class="e" d="M516.368,487.856a.119.119,0,0,0-.118.118v.849a.119.119,0,0,0,.118.118h28.423a.119.119,0,0,0,.118-.118v-.849a.119.119,0,0,0-.118-.118Z" transform="translate(-492.763 -443.984)"/><path class="e" d="M516.368,511.15a.119.119,0,0,0-.118.118v.849a.119.119,0,0,0,.118.118h28.423a.118.118,0,0,0,.118-.118v-.849a.119.119,0,0,0-.118-.118Z" transform="translate(-492.763 -464.556)"/><path class="e" d="M516.368,534.561a.119.119,0,0,0-.118.118v.849a.119.119,0,0,0,.118.118h28.423a.119.119,0,0,0,.118-.118v-.849a.119.119,0,0,0-.118-.118Z" transform="translate(-492.763 -485.23)"/><path class="e" d="M516.368,557.855a.119.119,0,0,0-.118.119v.849a.119.119,0,0,0,.118.118h28.423a.118.118,0,0,0,.118-.118v-.849a.119.119,0,0,0-.118-.119Z" transform="translate(-492.763 -505.802)"/><path class="e" d="M516.368,581.15a.119.119,0,0,0-.118.118v.849a.119.119,0,0,0,.118.118h28.423a.118.118,0,0,0,.118-.118v-.849a.118.118,0,0,0-.118-.118Z" transform="translate(-492.763 -526.374)"/><path class="e" d="M516.368,604.56a.119.119,0,0,0-.118.119v.849a.119.119,0,0,0,.118.118h28.423a.118.118,0,0,0,.118-.118v-.849a.119.119,0,0,0-.118-.119Z" transform="translate(-492.763 -547.048)"/><path class="e" d="M516.368,627.856a.119.119,0,0,0-.118.118v.849a.119.119,0,0,0,.118.118h28.423a.118.118,0,0,0,.118-.118v-.849a.118.118,0,0,0-.118-.118Z" transform="translate(-492.763 -567.788)"/><path class="e" d="M516.368,651.15a.119.119,0,0,0-.118.118v.849a.119.119,0,0,0,.118.118h28.423a.118.118,0,0,0,.118-.118v-.849a.118.118,0,0,0-.118-.118Z" transform="translate(-492.763 -588.324)"/></g></svg>